<?xml version="1.0" encoding="utf-8"?>
<!-- Generator: Adobe Illustrator 18.0.0, SVG Export Plug-In . SVG Version: 6.00 Build 0)  -->
<!DOCTYPE svg PUBLIC "-//W3C//DTD SVG 1.1//EN" "http://www.w3.org/Graphics/SVG/1.1/DTD/svg11.dtd">
<svg version="1.1"
	 id="svg3943" xmlns:inkscape="http://www.inkscape.org/namespaces/inkscape" xmlns:sodipodi="http://sodipodi.sourceforge.net/DTD/sodipodi-0.dtd" xmlns:svg="http://www.w3.org/2000/svg" xmlns:rdf="http://www.w3.org/1999/02/22-rdf-syntax-ns#" xmlns:dc="http://purl.org/dc/elements/1.1/" xmlns:cc="http://creativecommons.org/ns#" sodipodi:docname="logo-lab.svg" inkscape:version="0.91 r13725"
	 xmlns="http://www.w3.org/2000/svg" xmlns:xlink="http://www.w3.org/1999/xlink" x="0px" y="0px"
	 viewBox="178.5 173.4 132.1 107.2" enable-background="new 178.5 173.4 132.1 107.2" xml:space="preserve">
<g id="layer1" inkscape:label="Layer 1" inkscape:groupmode="layer">
	<g id="g3758" transform="matrix(1.25,0,0,-1.25,-136.52669,558.13172)">
		<g>
			<defs>
				<rect id="SVGID_1_" x="-62.3" y="29.8" width="841.9" height="595.3"/>
			</defs>
			<clipPath id="SVGID_2_">
				<use xlink:href="#SVGID_1_"  overflow="visible"/>
			</clipPath>
			<g id="g3760" clip-path="url(#SVGID_2_)">
				<g id="g3766" transform="translate(320.1546,259.39)">
					<path id="path3768" inkscape:connector-curvature="0" fill="#FFFFFF" d="M-42.2,37.4c-5.9,0-11.9-2.7-15.7-7.2
						c-4-4.6-5.7-11.3-4.5-17.2l0.1-0.3c0.2-0.8,0.3-1.6,0.2-2.6c-0.1-1-0.6-1.9-0.9-2.6l-0.2-0.3c-2.6-5.3-2.2-12.1,1-17.8
						c2.8-5.1,7.9-9.4,14.2-12.2l1.3-0.6l-0.4-1.3c-0.4-1.5-1.1-3.3-1.7-4.9c-0.5-1.5-1.1-3-1.5-4.3c3,1.3,7.8,5.7,9.4,7.3l0.7,0.7
						l0.9-0.3c0,0,4.6-1.3,6.2-1.6c5.2-1.1,9.9-0.7,13.2,1c0.3,0.1,0.6,0.3,0.8,0.5c0.7,0.4,1.5,0.8,2.4,1.1c0.5,0.1,1,0.2,1.4,0.3
						c0.4,0.1,0.7,0.1,1,0.2c1.4,0.4,2.5,1.5,3.7,2.6c0.9,0.9,1.9,1.8,3,2.5c3.7,2.4,8.1,1.9,12.3,1.4c3.7-0.4,7.1-0.8,10,0.7
						c0.9,0.5,1.8,1.2,2.7,1.9c1.1,0.8,2.2,1.7,3.5,2.3c0.7,0.3,1.4,0.6,2,0.7c0.4,0.1,0.9,0.1,1.2,0.1c0.2,0,0.4,0,0.5,0
						c1.2,0.2,2.5,0.6,3.4,1.2c5.3,3.1,6.4,8.4,6.4,12.4c0,1-0.6,2.4-1.1,3.4l-0.1,0.2c0,0.1-0.1,0.2-0.2,0.3
						c-0.2,0.5-0.6,1.1-0.6,1.8c-0.1,0.7,0.1,1.4,0.3,1.9c0,0.2,0.1,0.3,0.1,0.5c0.5,2.3,0.4,4.7-0.3,7.1c-1.3,4.9-4.6,8.9-8.8,10.8
						c-0.2,0.1-0.5,0.2-0.7,0.3c-1,0.4-2.1,0.9-3,1.7c-0.8,0.7-1.4,1.6-1.9,2.4c-0.1,0.1-0.2,0.3-0.3,0.4c-4.6,6.9-13.5,10.7-21.7,9
						l-0.2,0c-0.7-0.2-1.7-0.3-2.7-0.1c-0.9,0.2-1.7,0.7-2.3,1.1l-0.2,0.1c-7.9,5.3-19.6,4.3-26.6-2.2l-0.2-0.2
						c-0.7-0.6-1.4-1.3-2.4-1.7c-1-0.4-2.1-0.4-3-0.3l-0.3,0C-41.8,37.4-42,37.4-42.2,37.4"/>
				</g>
				<g id="g3770" transform="translate(309.1852,165.8745)">
					<path id="path3772" inkscape:connector-curvature="0" fill="#231F20" d="M-40,56.1c-1.1,0-2,0.5-2.4,1.3c-0.5,1-0.2,2-0.1,2.5
						c0.4,1.5,1.1,3.3,1.7,4.9c0.4,1.1,0.8,2.3,1.2,3.4c-6.3,3.1-11.4,7.7-14.4,13c-3.7,6.6-4.1,14.6-1,20.8l0.2,0.4
						c0.3,0.6,0.6,1.1,0.6,1.6c0.1,0.4-0.1,1-0.2,1.6l-0.1,0.3c-1.4,7,0.6,14.4,5.2,19.9c4.6,5.4,11.7,8.6,18.8,8.3l0.3,0
						c0.7,0,1.3,0,1.7,0.1c0.4,0.2,0.9,0.6,1.4,1l0.2,0.2c8.1,7.5,21.2,8.6,30.5,2.5l0.2-0.1c0.4-0.3,0.8-0.6,1.2-0.6
						c0.4-0.1,0.9,0,1.4,0.1l0.2,0c9.4,1.9,19.7-2.4,24.9-10.4c0.1-0.2,0.2-0.3,0.3-0.5c0.4-0.7,0.8-1.3,1.3-1.7
						c0.6-0.5,1.3-0.8,2.2-1.1c0.3-0.1,0.5-0.2,0.7-0.3c5.1-2.3,9.1-7.1,10.6-12.9c0.8-2.9,0.9-5.8,0.3-8.6c0-0.2-0.1-0.4-0.2-0.7
						c-0.1-0.3-0.2-0.7-0.2-0.9c0-0.1,0.2-0.4,0.3-0.6c0.1-0.1,0.1-0.3,0.2-0.4l0.1-0.2c0.6-1.4,1.4-3,1.4-4.8
						c0-6.8-2.8-12.1-8-15.1c-1.3-0.7-3-1.3-4.6-1.6c-0.4-0.1-0.8-0.1-1.1,0c-0.2,0-0.4,0-0.6,0c-0.4-0.1-0.8-0.2-1.2-0.4
						c-1-0.5-1.9-1.2-2.9-2c-1-0.8-2-1.5-3.2-2.2c-3.7-1.9-7.8-1.5-11.8-1.1c-3.8,0.4-7.5,0.8-10.3-1c-0.9-0.5-1.7-1.3-2.5-2.1
						c-1.4-1.4-2.9-2.8-5-3.4c-0.5-0.1-0.9-0.2-1.3-0.3c-0.4-0.1-0.7-0.1-1-0.2c-0.6-0.2-1.2-0.5-1.8-0.8c-0.3-0.2-0.6-0.4-0.9-0.5
						c-5.1-2.6-11.1-2.1-15.3-1.3c-1.3,0.3-4.1,1-5.6,1.4c-1.7-1.7-6.5-6.1-10-7.4C-38.9,56.2-39.5,56.1-40,56.1 M-31.2,130.9
						c-5.9,0-11.9-2.7-15.7-7.2c-4-4.6-5.7-11.3-4.5-17.2l0.1-0.3c0.2-0.8,0.3-1.6,0.2-2.6c-0.1-1-0.6-1.9-0.9-2.6l-0.2-0.3
						c-2.6-5.3-2.2-12.1,1-17.8c2.8-5.1,7.9-9.4,14.2-12.2l1.3-0.6l-0.4-1.3c-0.4-1.5-1.1-3.3-1.7-4.9c-0.5-1.5-1.1-3-1.5-4.3
						c3,1.3,7.8,5.7,9.4,7.3l0.7,0.7l0.9-0.3c0,0,4.6-1.3,6.2-1.6c5.2-1.1,9.9-0.7,13.2,1c0.3,0.1,0.6,0.3,0.8,0.5
						c0.7,0.4,1.5,0.8,2.4,1.1c0.5,0.1,1,0.2,1.4,0.3c0.4,0.1,0.7,0.1,1,0.2c1.4,0.4,2.5,1.5,3.7,2.6c0.9,0.9,1.9,1.8,3,2.5
						c3.7,2.4,8.1,1.9,12.3,1.4c3.7-0.4,7.1-0.8,10,0.7c0.9,0.5,1.8,1.2,2.7,1.9c1.1,0.8,2.2,1.7,3.5,2.3c0.7,0.3,1.4,0.6,2,0.7
						c0.4,0.1,0.9,0.1,1.2,0.1c0.2,0,0.4,0,0.5,0c1.2,0.2,2.5,0.6,3.4,1.2c5.3,3.1,6.4,8.4,6.4,12.4c0,1-0.6,2.4-1.1,3.4L44.2,98
						c0,0.1-0.1,0.2-0.1,0.3c-0.2,0.5-0.6,1.1-0.6,1.8c-0.1,0.7,0.1,1.4,0.3,1.9c0,0.2,0.1,0.3,0.1,0.5c0.5,2.3,0.4,4.7-0.3,7.1
						c-1.3,4.9-4.6,8.9-8.8,10.8c-0.2,0.1-0.5,0.2-0.7,0.3c-1,0.4-2.1,0.9-3,1.7c-0.8,0.7-1.4,1.6-1.9,2.4c-0.1,0.1-0.2,0.3-0.3,0.4
						c-4.6,6.9-13.5,10.7-21.7,9l-0.2,0c-0.7-0.2-1.7-0.3-2.7-0.1c-0.9,0.2-1.7,0.7-2.3,1.1l-0.2,0.1c-7.9,5.3-19.6,4.3-26.6-2.2
						l-0.2-0.2c-0.7-0.6-1.4-1.3-2.4-1.7c-1-0.4-2.1-0.4-3-0.3l-0.3,0C-30.8,130.9-31,130.9-31.2,130.9"/>
				</g>
				<g id="g3774" transform="translate(378.9794,208.6846)">
					<path id="path3776" inkscape:connector-curvature="0" fill="#231F20" d="M-54,47.6c-4.2,0-6.7,3.6-6.7,8.4
						c0,5.1,2.3,8.4,6.7,8.4c4.3,0,6.6-4.1,6.6-8.4C-47.4,51.8-49.2,47.6-54,47.6 M-53.3,68.5c-2.7,0-5.6-1.4-7.1-3.7h-0.1v12.1
						h-5.2V44.1h5v3.3h0.1c1.6-3.1,5-3.9,8.2-3.9c7,0,10.2,6,10.2,12.4C-42.2,62.8-45.8,68.5-53.3,68.5"/>
				</g>
				<g id="g3778" transform="translate(353.3067,219.19)">
					<path id="path3780" inkscape:connector-curvature="0" fill="#231F20" d="M-48.8,45.5c-1.6-1.1-4.1-1-6.4-1.4
						c-2.3-0.4-4.3-1.2-4.3-4c0-2.4,3-3,4.8-3c2.3,0,5.9,1.2,5.9,4.5V45.5z M-43.6,38.9c0-1.3,0.3-1.8,1.2-1.8h0.6
						c0.2,0,0.5,0,0.7,0.1v-3.6c-0.8-0.3-2.4-0.6-3.3-0.6c-2.2,0-3.6,0.7-4,2.9c-2.1-2-5.4-2.9-8.2-2.9c-4.3,0-8.1,2.3-8.1,6.9
						c0,5.9,4.7,6.9,9.1,7.4c3.8,0.7,7.1,0.2,7.1,3.4c0,2.8-2.8,3.2-4.9,3.2c-2.9,0-5-1.2-5.2-3.8h-5.2c0.4,6.1,5.5,7.9,10.8,7.9
						c4.6,0,9.5-1.9,9.5-6.9C-43.6,51.1-43.6,38.9-43.6,38.9z"/>
				</g>
				<g id="g3782" transform="translate(331.7918,210.5216)">
					<path id="path3784" inkscape:connector-curvature="0" fill="#231F20" d="M-44.5,47.2h-7V75h-5.7V42.2h16l-0.3,0.3
						C-42.8,43.1-44.1,45-44.5,47.2"/>
				</g>
			</g>
		</g>
	</g>
</g>
</svg>
