<?xml version="1.0" encoding="utf-8"?>
<!-- Generator: Adobe Illustrator 18.0.0, SVG Export Plug-In . SVG Version: 6.00 Build 0)  -->
<!DOCTYPE svg PUBLIC "-//W3C//DTD SVG 1.1//EN" "http://www.w3.org/Graphics/SVG/1.1/DTD/svg11.dtd">
<svg version="1.1" id="Layer_1" xmlns="http://www.w3.org/2000/svg" xmlns:xlink="http://www.w3.org/1999/xlink" x="0px" y="0px"
	 viewBox="0 0 670 152.071" enable-background="new 0 0 670 152.071" xml:space="preserve">
<g>
	<g>
		<rect x="0" y="20" width="10" height="130"/>
	</g>
	<g>
		<rect x="31.718" y="120" transform="matrix(0.7071 0.7071 -0.7071 0.7071 107.427 -9.3517)" width="66.569" height="10"/>
	</g>
	<g>
		<path d="M55.004,90C35.703,90,20,74.3,20,55.002C20,35.702,35.703,20,55.004,20C74.301,20,90,35.702,90,55.002
			C90,74.3,74.301,90,55.004,90z M55.004,30C41.217,30,30,41.216,30,55.002C30,68.786,41.217,80,55.004,80
			C68.787,80,80,68.786,80,55.002C80,41.216,68.787,30,55.004,30z"/>
	</g>
	<g>
		<path d="M135.002,130h-5v-10h5C148.786,120,160,108.785,160,95c0-13.785-11.214-25-24.998-25C121.216,70,110,81.215,110,95v5h-10
			v-5c0-19.299,15.702-35,35.002-35C154.3,60,170,75.701,170,95S154.3,130,135.002,130z"/>
	</g>
	<g>
		<polygon points="170,150 100,150 100,120 110,120 110,140 170,140 		"/>
	</g>
	<g>
		<polygon points="190,110 180,110 180,60 250.001,60 250.001,70 190,70 		"/>
	</g>
	<g>
		<polygon points="250.001,150 180,150 180,140 240.001,140 240.001,100 250.001,100 		"/>
	</g>
	<path d="M305.003,150c-24.814,0-45-20.186-45-44.998c0-24.814,20.186-45.002,45-45.002c24.813,0,45,20.188,45,45.002
		C350.003,129.814,329.816,150,305.003,150z M305.003,70c-19.299,0-35,15.702-35,35.002c0,19.298,15.701,34.998,35,34.998
		c19.299,0,35-15.7,35-34.998C340.003,85.702,324.301,70,305.003,70z"/>
	<g>
		<polygon points="430,150 420,150 420,70 370,70 370,150 360,150 360,60 430,60 		"/>
	</g>
	<g>
		<polygon points="530,150 520,150 520,70 460,70 460,60 530,60 		"/>
	</g>
	<g>
		<path d="M475.004,150C455.704,150,440,134.299,440,115s15.703-35,35.004-35C494.301,80,510,95.701,510,115
			S494.301,150,475.004,150z M475.004,90C461.217,90,450,101.215,450,115c0,13.785,11.217,25,25.004,25
			C488.788,140,500,128.785,500,115C500,101.215,488.788,90,475.004,90z"/>
	</g>
	<polygon points="590.003,60 570.003,60 570.003,0 560.003,0 560.003,60 540.003,60 540.003,70 560.003,70 560.003,150 570.003,150 
		570.003,70 590.003,70 	"/>
	<g>
		<path d="M635.003,130h-5v-10h5C648.787,120,660,108.785,660,95c0-13.785-11.214-25-24.998-25C621.216,70,610,81.215,610,95v5h-10
			v-5c0-19.299,15.702-35,35.002-35C654.3,60,670,75.701,670,95S654.3,130,635.003,130z"/>
	</g>
	<g>
		<polygon points="670,150 600,150 600,120 610,120 610,140 670,140 		"/>
	</g>
</g>
</svg>
