<?xml version="1.0" encoding="UTF-8" standalone="no"?>
<svg width="284px" height="105px" viewBox="0 0 284 105" version="1.1" xmlns="http://www.w3.org/2000/svg" xmlns:xlink="http://www.w3.org/1999/xlink" xmlns:sketch="http://www.bohemiancoding.com/sketch/ns">
    <!-- Generator: Sketch 3.4 (15575) - http://www.bohemiancoding.com/sketch -->
    <title>logo SNG</title>
    <desc>Created with Sketch.</desc>
    <defs></defs>
    <g id="Home-Page" stroke="none" stroke-width="1" fill="none" fill-rule="evenodd" sketch:type="MSPage">
        <g id="logo-SNG" sketch:type="MSLayerGroup" fill="#000000">
            <g id="Group" transform="translate(0.000000, 0.259259)" sketch:type="MSShapeGroup">
                <rect id="Rectangle-56" x="0" y="2" width="7.73631961" height="53.9568396"></rect>
                <rect id="Rectangle-56-Copy-6" x="0" y="62.3886603" width="7.73631961" height="39.6113397"></rect>
                <path d="M103,72.6795733 L103,80.3977581 L62.5352502,80.3977581 L62.5352502,72.6795733 L103,72.6795733 L103,72.6795733 Z" id="Rectangle-56-Copy-7"></path>
                <path d="M52.2201574,9.31667318 L57.6905614,3.85909239 L101.373277,47.4394106 L95.902873,52.8969914 L52.2201574,9.31667318 L52.2201574,9.31667318 Z" id="Rectangle-56-Copy-8"></path>
                <rect id="Rectangle-56-Copy" x="48.3519975" y="2" width="7.73631961" height="100"></rect>
                <rect id="Rectangle-56-Copy-2" x="96.7039951" y="2" width="7.73631961" height="100"></rect>
                <path d="M104.440315,96.4773097 L104.440315,104.195494 L0,104.195494 L0,96.4773097 L104.440315,96.4773097 L104.440315,96.4773097 Z" id="Rectangle-56-Copy-3"></path>
                <path d="M103,48.2386548 L103,55.9568396 L0,55.9568396 L0,48.2386548 L103,48.2386548 L103,48.2386548 Z" id="Rectangle-56-Copy-4"></path>
                <path d="M104.440315,2.89103644e-14 L104.440315,7.71818478 L0,7.71818478 L0,9.76996262e-15 L104.440315,2.89103644e-14 L104.440315,2.89103644e-14 Z" id="Rectangle-56-Copy-5"></path>
            </g>
            <text id="Slovenská--národná--" sketch:type="MSTextLayer" font-family="Heiti TC" font-size="33" font-weight="bold">
                <tspan x="130" y="30">Slovenská </tspan>
                <tspan x="130" y="64">národná </tspan>
                <tspan x="130" y="98">galéria</tspan>
            </text>
        </g>
    </g>
</svg>