<?xml version="1.0" encoding="UTF-8" standalone="no"?>
<!-- Created with Inkscape (http://www.inkscape.org/) -->

<svg
   xmlns:dc="http://purl.org/dc/elements/1.1/"
   xmlns:cc="http://creativecommons.org/ns#"
   xmlns:rdf="http://www.w3.org/1999/02/22-rdf-syntax-ns#"
   xmlns:svg="http://www.w3.org/2000/svg"
   xmlns="http://www.w3.org/2000/svg"
   xmlns:sodipodi="http://sodipodi.sourceforge.net/DTD/sodipodi-0.dtd"
   xmlns:inkscape="http://www.inkscape.org/namespaces/inkscape"
   width="210mm"
   height="297mm"
   viewBox="0 0 744.09448819 1052.3622047"
   id="svg3943"
   version="1.1"
   inkscape:version="0.91 r13725"
   sodipodi:docname="logo-lab.svg">
  <defs
     id="defs3945">
    <clipPath
       clipPathUnits="userSpaceOnUse"
       id="clipPath3762">
      <path
         d="m 0,0 841.89,0 0,595.276 L 0,595.276 0,0 Z"
         id="path3764"
         inkscape:connector-curvature="0" />
    </clipPath>
  </defs>
  <sodipodi:namedview
     id="base"
     pagecolor="#ffffff"
     bordercolor="#666666"
     borderopacity="1.0"
     inkscape:pageopacity="0.0"
     inkscape:pageshadow="2"
     inkscape:zoom="0.35"
     inkscape:cx="375"
     inkscape:cy="520"
     inkscape:document-units="px"
     inkscape:current-layer="layer1"
     showgrid="false"
     inkscape:window-width="1600"
     inkscape:window-height="837"
     inkscape:window-x="-8"
     inkscape:window-y="-8"
     inkscape:window-maximized="1" />
  <metadata
     id="metadata3948">
    <rdf:RDF>
      <cc:Work
         rdf:about="">
        <dc:format>image/svg+xml</dc:format>
        <dc:type
           rdf:resource="http://purl.org/dc/dcmitype/StillImage" />
        <dc:title></dc:title>
      </cc:Work>
    </rdf:RDF>
  </metadata>
  <g
     inkscape:label="Layer 1"
     inkscape:groupmode="layer"
     id="layer1">
    <g
       id="g3758"
       transform="matrix(1.25,0,0,-1.25,-136.52669,558.13172)">
      <g
         id="g3760"
         clip-path="url(#clipPath3762)">
        <g
           id="g3766"
           transform="translate(320.1546,259.39)">
          <path
             d="m 0,0 c -7.391,0 -14.859,-3.428 -19.641,-9.057 -4.939,-5.812 -7.099,-14.073 -5.638,-21.559 l 0.069,-0.345 c 0.193,-0.956 0.412,-2.041 0.266,-3.224 -0.157,-1.274 -0.695,-2.337 -1.171,-3.274 l -0.213,-0.425 c -3.249,-6.58 -2.789,-15.123 1.198,-22.293 3.545,-6.376 9.847,-11.811 17.744,-15.304 l 1.564,-0.691 -0.465,-1.645 c -0.541,-1.917 -1.319,-4.065 -2.071,-6.143 -0.667,-1.838 -1.353,-3.733 -1.85,-5.404 3.741,1.584 9.728,7.106 11.754,9.137 l 0.819,0.821 1.115,-0.318 c 0.058,-0.017 5.778,-1.646 7.756,-2.049 6.523,-1.327 12.398,-0.893 16.54,1.223 0.35,0.178 0.693,0.373 1.037,0.566 0.919,0.518 1.87,1.054 2.996,1.398 0.611,0.186 1.194,0.291 1.756,0.392 0.452,0.082 0.878,0.158 1.254,0.269 1.692,0.495 3.114,1.862 4.62,3.31 1.142,1.097 2.323,2.233 3.745,3.13 4.685,2.953 10.116,2.364 15.369,1.792 4.592,-0.5 8.931,-0.972 12.468,0.89 1.16,0.611 2.232,1.443 3.366,2.324 1.336,1.036 2.716,2.108 4.358,2.905 0.885,0.428 1.718,0.707 2.55,0.853 0.562,0.099 1.077,0.084 1.493,0.074 0.258,-0.006 0.502,-0.013 0.665,0.012 1.487,0.222 3.176,0.791 4.304,1.449 6.603,3.853 7.989,10.543 7.989,15.476 0,1.278 -0.786,2.943 -1.417,4.282 l -0.103,0.22 c -0.059,0.126 -0.124,0.25 -0.188,0.375 -0.306,0.598 -0.688,1.343 -0.762,2.29 -0.07,0.913 0.147,1.734 0.321,2.395 0.055,0.204 0.109,0.406 0.149,0.606 0.573,2.847 0.459,5.936 -0.328,8.93 -1.607,6.111 -5.726,11.152 -11.018,13.487 -0.282,0.124 -0.568,0.243 -0.854,0.362 -1.213,0.505 -2.588,1.076 -3.761,2.088 -1.049,0.906 -1.771,2.024 -2.408,3.01 -0.116,0.18 -0.232,0.36 -0.35,0.538 C 69.274,1.56 58.118,6.211 47.896,4.18 L 47.654,4.131 c -0.935,-0.19 -2.1,-0.426 -3.335,-0.168 -1.157,0.242 -2.083,0.86 -2.827,1.355 L 41.301,5.445 C 31.374,12.009 16.765,10.812 8.042,2.719 L 7.793,2.486 C 6.978,1.724 6.056,0.86 4.774,0.377 3.479,-0.11 2.204,-0.063 1.082,-0.023 L 0.723,-0.011 C 0.483,-0.004 0.241,0 0,0"
             style="fill:#ffffff;fill-opacity:1;fill-rule:nonzero;stroke:none"
             id="path3768"
             inkscape:connector-curvature="0" />
        </g>
        <g
           id="g3770"
           transform="translate(309.1852,165.8745)">
          <path
             d="m 0,0 c -1.33,0 -2.449,0.583 -3.035,1.669 -0.658,1.222 -0.301,2.481 -0.129,3.087 0.54,1.915 1.318,4.063 2.071,6.141 0.52,1.433 1.052,2.902 1.496,4.271 -7.937,3.851 -14.292,9.576 -18.006,16.256 -4.607,8.284 -5.101,18.228 -1.288,25.951 l 0.232,0.462 c 0.361,0.712 0.702,1.386 0.775,1.975 0.068,0.549 -0.071,1.236 -0.218,1.963 l -0.074,0.37 c -1.71,8.764 0.721,18.059 6.502,24.864 5.782,6.805 14.581,10.703 23.486,10.433 l 0.381,-0.014 c 0.828,-0.029 1.608,-0.058 2.163,0.151 0.549,0.206 1.114,0.736 1.713,1.297 l 0.265,0.247 c 10.162,9.427 26.546,10.77 38.109,3.123 l 0.203,-0.135 c 0.533,-0.355 1.037,-0.691 1.449,-0.777 0.442,-0.092 1.074,0.037 1.746,0.173 l 0.257,0.052 c 11.75,2.334 24.569,-3.011 31.183,-12.996 0.126,-0.191 0.25,-0.383 0.374,-0.575 0.542,-0.838 1.053,-1.629 1.674,-2.166 0.694,-0.599 1.668,-1.004 2.698,-1.432 0.313,-0.13 0.625,-0.26 0.932,-0.396 6.38,-2.814 11.328,-8.829 13.237,-16.088 0.94,-3.573 1.071,-7.276 0.381,-10.71 -0.055,-0.275 -0.128,-0.554 -0.202,-0.835 -0.108,-0.412 -0.221,-0.837 -0.202,-1.084 0.012,-0.159 0.194,-0.513 0.34,-0.798 0.085,-0.165 0.169,-0.33 0.246,-0.495 l 0.102,-0.216 c 0.799,-1.694 1.794,-3.802 1.794,-5.962 0,-8.555 -3.439,-15.083 -9.944,-18.879 -1.572,-0.917 -3.705,-1.643 -5.706,-1.942 -0.503,-0.075 -0.954,-0.064 -1.35,-0.054 -0.277,0.007 -0.537,0.014 -0.71,-0.016 -0.467,-0.082 -0.961,-0.252 -1.511,-0.518 -1.272,-0.617 -2.433,-1.518 -3.662,-2.472 -1.219,-0.947 -2.48,-1.926 -3.947,-2.698 -4.602,-2.422 -9.751,-1.862 -14.729,-1.32 -4.792,0.521 -9.318,1.013 -12.84,-1.208 C 55.172,18.015 54.184,17.066 53.138,16.061 51.356,14.348 49.514,12.576 46.896,11.81 46.318,11.64 45.766,11.541 45.233,11.445 44.762,11.36 44.317,11.28 43.928,11.161 43.212,10.943 42.485,10.534 41.716,10.1 41.326,9.88 40.935,9.66 40.537,9.457 34.214,6.228 26.651,6.819 21.42,7.883 19.837,8.205 16.283,9.185 14.471,9.692 12.284,7.594 6.308,2.099 2.004,0.404 1.312,0.132 0.632,0 0,0 M 10.969,93.515 C 3.578,93.515 -3.89,90.087 -8.672,84.458 -13.61,78.646 -15.771,70.386 -14.31,62.9 l 0.07,-0.345 c 0.192,-0.957 0.411,-2.041 0.265,-3.224 -0.157,-1.274 -0.695,-2.337 -1.171,-3.275 l -0.213,-0.425 c -3.248,-6.58 -2.789,-15.122 1.199,-22.293 3.545,-6.376 9.846,-11.811 17.744,-15.303 L 5.147,17.344 4.682,15.699 C 4.142,13.782 3.363,11.633 2.611,9.555 1.945,7.717 1.258,5.822 0.761,4.151 c 3.741,1.585 9.729,7.107 11.754,9.137 l 0.819,0.821 1.115,-0.318 c 0.058,-0.016 5.778,-1.646 7.757,-2.048 6.522,-1.328 12.397,-0.894 16.539,1.222 0.351,0.179 0.694,0.373 1.037,0.567 0.92,0.518 1.87,1.053 2.997,1.397 0.611,0.186 1.193,0.291 1.755,0.393 0.452,0.081 0.879,0.158 1.254,0.268 1.693,0.495 3.115,1.862 4.62,3.31 1.142,1.098 2.324,2.233 3.746,3.13 4.684,2.954 10.116,2.364 15.369,1.793 4.592,-0.5 8.93,-0.972 12.468,0.89 1.159,0.61 2.231,1.442 3.366,2.323 1.335,1.037 2.715,2.108 4.358,2.905 0.884,0.428 1.718,0.707 2.55,0.854 0.562,0.098 1.076,0.084 1.492,0.074 0.258,-0.006 0.503,-0.013 0.665,0.011 1.487,0.222 3.177,0.791 4.304,1.449 6.603,3.854 7.99,10.543 7.99,15.477 0,1.277 -0.786,2.943 -1.417,4.281 l -0.104,0.221 c -0.059,0.126 -0.123,0.249 -0.187,0.374 -0.307,0.598 -0.689,1.343 -0.762,2.291 -0.071,0.912 0.146,1.734 0.321,2.394 0.054,0.204 0.108,0.406 0.148,0.606 0.573,2.848 0.46,5.936 -0.328,8.931 -1.607,6.11 -5.725,11.152 -11.018,13.487 -0.281,0.124 -0.568,0.243 -0.854,0.362 -1.213,0.504 -2.588,1.076 -3.76,2.088 -1.049,0.906 -1.771,2.023 -2.408,3.009 -0.116,0.18 -0.233,0.36 -0.35,0.538 -5.753,8.687 -16.91,13.338 -27.131,11.307 l -0.242,-0.049 c -0.936,-0.189 -2.101,-0.426 -3.336,-0.168 -1.157,0.243 -2.083,0.86 -2.827,1.356 l -0.19,0.127 c -9.927,6.564 -24.536,5.366 -33.259,-2.726 l -0.25,-0.234 c -0.814,-0.762 -1.736,-1.626 -3.019,-2.109 -1.295,-0.487 -2.57,-0.44 -3.692,-0.4 l -0.358,0.012 c -0.24,0.008 -0.483,0.011 -0.724,0.011"
             style="fill:#231f20;fill-opacity:1;fill-rule:nonzero;stroke:none"
             id="path3772"
             inkscape:connector-curvature="0" />
        </g>
        <g
           id="g3774"
           transform="translate(378.9794,208.6846)">
          <path
             d="m 0,0 c -5.281,0 -8.324,4.478 -8.324,10.448 0,6.372 2.813,10.505 8.324,10.505 5.396,0 8.208,-5.166 8.208,-10.505 C 8.208,5.282 5.97,0 0,0 m 0.861,26.12 c -3.386,0 -7.003,-1.78 -8.84,-4.651 l -0.114,0 0,15.155 -6.545,0 0,-40.986 6.199,0 0,4.075 0.115,0 c 1.952,-3.903 6.258,-4.878 10.276,-4.878 8.725,0 12.8,7.462 12.8,15.498 0,8.726 -4.535,15.787 -13.891,15.787"
             style="fill:#231f20;fill-opacity:1;fill-rule:nonzero;stroke:none"
             id="path3776"
             inkscape:connector-curvature="0" />
        </g>
        <g
           id="g3778"
           transform="translate(353.3067,219.19)">
          <path
             d="m 0,0 c -2.009,-1.32 -5.109,-1.264 -8.037,-1.779 -2.813,-0.459 -5.338,-1.493 -5.338,-4.938 0,-2.984 3.731,-3.788 6.027,-3.788 2.869,0 7.348,1.492 7.348,5.625 L 0,0 Z m 6.543,-8.266 c 0,-1.607 0.346,-2.239 1.55,-2.239 l 0.69,0 c 0.287,0 0.573,0.057 0.918,0.114 l 0,-4.534 c -0.975,-0.344 -3.043,-0.746 -4.133,-0.746 -2.699,0 -4.536,0.918 -5.052,3.617 -2.583,-2.527 -6.774,-3.617 -10.275,-3.617 -5.338,0 -10.161,2.87 -10.161,8.667 0,7.406 5.913,8.611 11.424,9.243 4.765,0.918 8.898,0.286 8.898,4.191 0,3.443 -3.56,4.018 -6.143,4.018 -3.673,0 -6.257,-1.493 -6.544,-4.708 l -6.543,0 c 0.459,7.634 6.887,9.875 13.489,9.875 5.798,0 11.882,-2.355 11.882,-8.612 l 0,-15.269 z"
             style="fill:#231f20;fill-opacity:1;fill-rule:nonzero;stroke:none"
             id="path3780"
             inkscape:connector-curvature="0" />
        </g>
        <g
           id="g3782"
           transform="translate(331.7918,210.5216)">
          <path
             d="m 0,0 -8.787,0 0,34.787 -7.175,0 0,-40.986 19.989,0 -0.411,0.361 C 2.174,-5.163 0.497,-2.768 0,0"
             style="fill:#231f20;fill-opacity:1;fill-rule:nonzero;stroke:none"
             id="path3784"
             inkscape:connector-curvature="0" />
        </g>
      </g>
    </g>
  </g>
</svg>
