<?xml version="1.0" encoding="UTF-8" standalone="no"?>
<svg width="500px" height="68px" viewBox="0 0 228 31" version="1.1" xmlns="http://www.w3.org/2000/svg" xmlns:xlink="http://www.w3.org/1999/xlink" xmlns:sketch="http://www.bohemiancoding.com/sketch/ns">
    <!-- Generator: Sketch 3.4 (15575) - http://www.bohemiancoding.com/sketch -->
    <title>sensorium-logo-white</title>
    <desc>Created with Sketch.</desc>
    <defs></defs>
    <g id="Page-1" stroke="none" stroke-width="1" fill="none" fill-rule="evenodd" sketch:type="MSPage">
        <g id="sensorium-logo-white" sketch:type="MSLayerGroup" fill="#FFFFFF">
            <g id="Layer_1" sketch:type="MSShapeGroup">
                <g id="Group">
                    <path d="M9.731,0 C4.365,0 0,4.365 0,9.73 C0,15.096 4.365,19.46 9.731,19.46 L9.731,13.96 C7.398,13.96 5.5,12.062 5.5,9.729 C5.5,7.397 7.398,5.499 9.731,5.499 C12.063,5.499 13.961,7.397 13.961,9.729 L19.461,9.729 C19.461,4.365 15.096,0 9.731,0 L9.731,0 Z" id="Shape"></path>
                    <path d="M9.731,10.449 L9.731,12.449 C13.622,12.449 16.787,15.615 16.787,19.506 C16.787,23.397 13.621,26.563 9.731,26.563 C5.84,26.563 2.674,23.397 2.674,19.506 L0.674,19.506 C0.674,24.5 4.736,28.563 9.731,28.563 C14.725,28.563 18.787,24.5 18.787,19.506 C18.787,14.512 14.725,10.449 9.731,10.449 L9.731,10.449 Z" id="Shape"></path>
                    <path d="M86.278,0 C80.912,0 76.547,4.365 76.547,9.73 C76.547,15.096 80.912,19.46 86.278,19.46 L86.278,13.96 C83.945,13.96 82.047,12.062 82.047,9.729 C82.047,7.397 83.945,5.499 86.278,5.499 C88.61,5.499 90.508,7.397 90.508,9.729 L96.008,9.729 C96.008,4.365 91.643,0 86.278,0 L86.278,0 Z" id="Shape"></path>
                    <path d="M148.035,8.671 C148.035,11.385 145.828,13.592 143.114,13.592 L143.114,15.592 C146.93,15.592 150.035,12.487 150.035,8.671 C150.035,4.855 146.931,1.75 143.114,1.75 L131.266,1.75 L131.266,3.75 L143.114,3.75 C145.827,3.75 148.035,5.957 148.035,8.671 L148.035,8.671 Z" id="Shape"></path>
                    <path d="M179.625,24.812 C177.877,24.812 176.454,23.389 176.454,21.641 L176.454,2.75 L170.954,2.75 L170.954,21.641 C170.954,26.422 174.844,30.312 179.625,30.312 C184.406,30.312 188.297,26.422 188.297,21.641 L182.797,21.641 C182.797,23.389 181.374,24.812 179.625,24.812 L179.625,24.812 Z" id="Shape"></path>
                    <path d="M86.278,10.449 L86.278,12.449 C90.169,12.449 93.334,15.615 93.334,19.506 C93.334,23.397 90.168,26.563 86.278,26.563 C82.387,26.563 79.221,23.397 79.221,19.506 L77.221,19.506 C77.221,24.5 81.284,28.563 86.278,28.563 C91.272,28.563 95.334,24.5 95.334,19.506 C95.334,14.512 91.271,10.449 86.278,10.449 L86.278,10.449 Z" id="Shape"></path>
                    <path d="M36.039,24.49 C35.003,24.919 33.862,24.919 32.826,24.49 C31.79,24.061 30.983,23.254 30.554,22.219 C30.125,21.183 30.125,20.042 30.554,19.006 C30.852,18.285 31.343,17.686 31.957,17.236 C32.754,17.499 33.59,17.648 34.442,17.648 C35.454,17.648 36.482,17.453 37.473,17.043 L36.708,15.195 C36.695,15.2 36.683,15.203 36.67,15.209 L38.143,11.653 C35.75,10.662 33.114,10.662 30.721,11.653 C30.174,11.88 29.659,12.157 29.172,12.47 C29.088,12.31 29.008,12.146 28.937,11.976 C28.329,10.508 28.329,8.891 28.937,7.423 C29.545,5.955 30.688,4.812 32.156,4.204 C33.624,3.596 35.24,3.596 36.708,4.204 C38.176,4.812 39.319,5.955 39.927,7.423 L41.775,6.658 C40.963,4.697 39.435,3.169 37.473,2.357 C35.512,1.545 33.351,1.545 31.39,2.357 C29.429,3.169 27.901,4.697 27.089,6.658 C26.277,8.619 26.277,10.78 27.089,12.741 C27.233,13.089 27.405,13.416 27.591,13.732 C26.693,14.625 25.971,15.695 25.472,16.9 C24.481,19.293 24.481,21.929 25.472,24.322 C26.463,26.715 28.327,28.579 30.721,29.57 C31.918,30.066 33.175,30.314 34.432,30.314 C35.689,30.314 36.947,30.066 38.143,29.57 C40.536,28.579 42.4,26.715 43.392,24.322 L38.31,22.218 C37.882,23.254 37.075,24.062 36.039,24.49 L36.039,24.49 Z" id="Shape"></path>
                    <path d="M52.474,2.75 L50.474,2.75 L50.474,4.365 L48.821,2.712 L44.932,6.601 L50.474,12.143 L50.474,27.562 L52.474,27.562 L52.474,14.143 L67.798,29.468 L71.688,25.579 L52.474,6.365 L52.474,2.75 Z" id="Shape"></path>
                    <rect id="Rectangle-path" x="225.48" y="2.75" width="2" height="24.812"></rect>
                    <rect id="Rectangle-path" x="189.779" y="2.75" width="2" height="24.812"></rect>
                    <rect id="Rectangle-path" x="67.064" y="2.75" width="2" height="16.626"></rect>
                    <path d="M213.993,17.578 L202.72,6.305 L202.72,2.75 L200.72,2.75 L200.72,4.305 L199.147,2.732 L195.258,6.622 L200.72,12.083 L200.72,27.562 L202.72,27.562 L202.72,14.083 L213.992,25.355 L223.868,15.482 L219.979,11.592 L213.993,17.578 Z" id="Shape"></path>
                    <path d="M127.419,9.146 L132.966,14.693 L132.966,27.562 L134.966,27.562 L134.966,16.693 L147.685,29.412 L151.574,25.522 L131.309,5.257 L127.419,9.146 Z" id="Shape"></path>
                    <path d="M115.121,24.812 C113.039,24.812 111.082,24.001 109.61,22.529 C106.571,19.49 106.571,14.546 109.61,11.507 L105.721,7.618 C103.21,10.129 101.827,13.468 101.827,17.018 C101.827,20.569 103.21,23.908 105.721,26.418 C108.232,28.929 111.571,30.312 115.121,30.312 C118.672,30.312 122.011,28.929 124.521,26.418 L120.632,22.529 C119.16,24.001 117.203,24.812 115.121,24.812 L115.121,24.812 Z" id="Shape"></path>
                    <path d="M111.362,3.75 C113.911,3.75 116.308,4.743 118.111,6.545 C121.832,10.266 121.832,16.321 118.111,20.042 L119.525,21.457 C124.026,16.956 124.026,9.632 119.525,5.131 C117.345,2.951 114.446,1.75 111.362,1.75 C108.279,1.75 105.38,2.951 103.199,5.131 L104.614,6.545 C106.416,4.743 108.813,3.75 111.362,3.75 L111.362,3.75 Z" id="Shape"></path>
                    <path d="M159.42,2.75 L157.67,2.75 L157.67,15.156 L159.42,15.156 L159.42,27.562 L161.42,27.562 L161.42,15.156 L163.17,15.156 L163.17,2.75 L161.42,2.75 L159.42,2.75 Z" id="Shape"></path>
                </g>
            </g>
        </g>
    </g>
</svg>