<?xml version="1.0" encoding="utf-8"?>
<!-- Generator: Adobe Illustrator 18.0.0, SVG Export Plug-In . SVG Version: 6.00 Build 0)  -->
<!DOCTYPE svg PUBLIC "-//W3C//DTD SVG 1.1//EN" "http://www.w3.org/Graphics/SVG/1.1/DTD/svg11.dtd">
<svg version="1.1" id="Layer_1" xmlns="http://www.w3.org/2000/svg" xmlns:xlink="http://www.w3.org/1999/xlink" x="0px" y="0px"
	 viewBox="0 0 335.2 30.3" enable-background="new 0 0 335.2 30.3" xml:space="preserve">
<g>
	<path fill="#0097AD" d="M9.7,0C4.4,0,0,4.4,0,9.7s4.4,9.7,9.7,9.7V14c-2.3,0-4.2-1.9-4.2-4.2s1.9-4.2,4.2-4.2
		c2.3,0,4.2,1.9,4.2,4.2h5.5C19.5,4.4,15.1,0,9.7,0z"/>
	<path fill="#0097AD" d="M9.7,10.4v2c3.9,0,7.1,3.2,7.1,7.1s-3.2,7.1-7.1,7.1s-7.1-3.2-7.1-7.1h-2c0,5,4.1,9.1,9.1,9.1
		s9.1-4.1,9.1-9.1S14.7,10.4,9.7,10.4z"/>
	<path fill="#0097AD" d="M86.3,0c-5.4,0-9.7,4.4-9.7,9.7s4.4,9.7,9.7,9.7V14c-2.3,0-4.2-1.9-4.2-4.2s1.9-4.2,4.2-4.2
		s4.2,1.9,4.2,4.2H96C96,4.4,91.6,0,86.3,0z"/>
	<path fill="#0097AD" d="M148,8.7c0,2.7-2.2,4.9-4.9,4.9v2c3.8,0,6.9-3.1,6.9-6.9c0-3.8-3.1-6.9-6.9-6.9h-11.8v2h11.8
		C145.8,3.8,148,6,148,8.7z"/>
	<path fill="#0097AD" d="M179.6,24.8c-1.7,0-3.2-1.4-3.2-3.2V2.8H171v18.9c0,4.8,3.9,8.7,8.7,8.7c4.8,0,8.7-3.9,8.7-8.7h-5.5
		C182.8,23.4,181.4,24.8,179.6,24.8z"/>
	<path fill="#0097AD" d="M86.3,10.4v2c3.9,0,7.1,3.2,7.1,7.1s-3.2,7.1-7.1,7.1s-7.1-3.2-7.1-7.1h-2c0,5,4.1,9.1,9.1,9.1
		c5,0,9.1-4.1,9.1-9.1S91.3,10.4,86.3,10.4z"/>
	<path fill="#0097AD" d="M36,24.5c-1,0.4-2.2,0.4-3.2,0c-1-0.4-1.8-1.2-2.3-2.3c-0.4-1-0.4-2.2,0-3.2c0.3-0.7,0.8-1.3,1.4-1.8
		c0.8,0.3,1.6,0.4,2.5,0.4c1,0,2-0.2,3-0.6l-0.8-1.8c0,0,0,0,0,0l1.5-3.6c-2.4-1-5-1-7.4,0c-0.5,0.2-1.1,0.5-1.5,0.8
		c-0.1-0.2-0.2-0.3-0.2-0.5c-0.6-1.5-0.6-3.1,0-4.6c0.6-1.5,1.8-2.6,3.2-3.2c1.5-0.6,3.1-0.6,4.6,0c1.5,0.6,2.6,1.8,3.2,3.2l1.8-0.8
		c-0.8-2-2.3-3.5-4.3-4.3c-2-0.8-4.1-0.8-6.1,0c-2,0.8-3.5,2.3-4.3,4.3c-0.8,2-0.8,4.1,0,6.1c0.1,0.3,0.3,0.7,0.5,1
		c-0.9,0.9-1.6,2-2.1,3.2c-1,2.4-1,5,0,7.4c1,2.4,2.9,4.3,5.2,5.2c1.2,0.5,2.5,0.7,3.7,0.7c1.3,0,2.5-0.2,3.7-0.7
		c2.4-1,4.3-2.9,5.2-5.2l-5.1-2.1C37.9,23.3,37.1,24.1,36,24.5z"/>
	<polygon fill="#0097AD" points="52.5,2.8 50.5,2.8 50.5,4.4 48.8,2.7 44.9,6.6 50.5,12.1 50.5,27.6 52.5,27.6 52.5,14.1 67.8,29.5 
		71.7,25.6 52.5,6.4 	"/>
	<rect x="225.5" y="2.7" fill="#0097AD" width="2" height="24.8"/>
	<rect x="189.8" y="2.7" fill="#0097AD" width="2" height="24.8"/>
	<rect x="67.1" y="2.7" fill="#0097AD" width="2" height="16.6"/>
	<polygon fill="#0097AD" points="214,17.6 202.7,6.3 202.7,2.8 200.7,2.8 200.7,4.3 199.1,2.7 195.3,6.6 200.7,12.1 200.7,27.6 
		202.7,27.6 202.7,14.1 214,25.4 223.9,15.5 220,11.6 	"/>
	<polygon fill="#0097AD" points="127.4,9.1 133,14.7 133,27.6 135,27.6 135,16.7 147.7,29.4 151.6,25.5 131.3,5.3 	"/>
	<path fill="#0097AD" d="M115.1,24.8c-2.1,0-4-0.8-5.5-2.3c-3-3-3-8,0-11l-3.9-3.9c-2.5,2.5-3.9,5.8-3.9,9.4c0,3.6,1.4,6.9,3.9,9.4
		c2.5,2.5,5.8,3.9,9.4,3.9s6.9-1.4,9.4-3.9l-3.9-3.9C119.2,24,117.2,24.8,115.1,24.8z"/>
	<path fill="#0097AD" d="M111.4,3.8c2.5,0,4.9,1,6.7,2.8c3.7,3.7,3.7,9.8,0,13.5l1.4,1.4c4.5-4.5,4.5-11.8,0-16.3
		c-2.2-2.2-5.1-3.4-8.2-3.4s-6,1.2-8.2,3.4l1.4,1.4C106.4,4.7,108.8,3.8,111.4,3.8z"/>
	<polygon fill="#0097AD" points="159.4,2.8 157.7,2.8 157.7,15.2 159.4,15.2 159.4,27.6 161.4,27.6 161.4,15.2 163.2,15.2 
		163.2,2.8 161.4,2.8 	"/>
	<path fill="#0097AD" d="M255.3,0.2c-2.6,0-5.1,1-6.9,2.9s-2.9,4.3-2.9,6.9c0,2.6,1,5.1,2.9,6.9l3.9-3.9c-0.8-0.8-1.3-1.9-1.3-3
		c0-1.1,0.4-2.2,1.3-3c0.8-0.8,1.9-1.3,3-1.3c1.1,0,2.2,0.4,3,1.3c0.8,0.8,1.3,1.9,1.3,3c0,1.1-0.4,2.2-1.3,3l-7,7l3.9,3.9l7-7
		c1.8-1.8,2.9-4.3,2.9-6.9c0-2.6-1-5.1-2.9-6.9C260.4,1.2,258,0.2,255.3,0.2z"/>
	<path fill="#0097AD" d="M332.1,12.4l-3.9,3.9c1.9,1.9,1.9,5.1,0,7.1c-1.9,1.9-5.1,1.9-7.1,0c-1.9-1.9-1.9-5.1,0-7.1l-1.2-1.2
		l11.7-11.6L330.2,2l-11.7,11.6l0.9,0.9l-2.1-2.1c-2,2-3.1,4.6-3.1,7.4c0,2.8,1.1,5.4,3.1,7.4c2,2,4.7,3.1,7.4,3.1
		c2.7,0,5.4-1,7.4-3.1C336.2,23.1,336.2,16.5,332.1,12.4z"/>
	<rect x="247.7" y="25.6" fill="#0097AD" width="15.2" height="2"/>
	<path fill="#0097AD" d="M284.2,11.4c1.5,1.5,2.3,3.4,2.3,5.5c0,2.1-0.8,4-2.3,5.5c-3,3-8,3-11,0l-3.9,3.9c2.5,2.5,5.8,3.9,9.4,3.9
		s6.9-1.4,9.4-3.9c2.5-2.5,3.9-5.8,3.9-9.4c0-3.6-1.4-6.9-3.9-9.4L284.2,11.4z"/>
	<path fill="#0097AD" d="M275.7,19.9c-3.7-3.7-3.7-9.8,0-13.5c1.8-1.8,4.2-2.8,6.7-2.8c2.5,0,4.9,1,6.7,2.8l1.4-1.4
		c-2.2-2.2-5.1-3.4-8.2-3.4c-3.1,0-6,1.2-8.2,3.4c-4.5,4.5-4.5,11.8,0,16.3L275.7,19.9z"/>
	<polygon fill="#0097AD" points="306.8,4.4 306.8,2.8 304.8,2.8 304.8,6.4 297.1,14.1 301,18 304.8,14.1 304.8,27.6 306.8,27.6 
		306.8,12.1 312.4,6.6 308.5,2.7 	"/>
</g>
</svg>
