<?xml version="1.0" encoding="utf-8"?>
<!-- Generator: Adobe Illustrator 18.0.0, SVG Export Plug-In . SVG Version: 6.00 Build 0)  -->
<!DOCTYPE svg PUBLIC "-//W3C//DTD SVG 1.1//EN" "http://www.w3.org/Graphics/SVG/1.1/DTD/svg11.dtd">
<svg version="1.1" id="Layer_1" xmlns="http://www.w3.org/2000/svg" xmlns:xlink="http://www.w3.org/1999/xlink" x="0px" y="0px"
	 viewBox="0 0 335.169 30.316" enable-background="new 0 0 335.169 30.316" xml:space="preserve">
<g>
	<path fill="#FFFFFF" d="M9.731,0C4.365,0,0,4.365,0,9.731s4.365,9.731,9.731,9.731v-5.5c-2.333,0-4.231-1.898-4.231-4.231
		S7.398,5.5,9.731,5.5c2.333,0,4.231,1.898,4.231,4.231h5.5C19.461,4.365,15.096,0,9.731,0z"/>
	<path fill="#FFFFFF" d="M9.731,10.449v2c3.891,0,7.056,3.166,7.056,7.057s-3.165,7.056-7.056,7.056s-7.056-3.166-7.056-7.056h-2
		c0,4.994,4.063,9.056,9.056,9.056s9.056-4.063,9.056-9.056S14.724,10.449,9.731,10.449z"/>
	<path fill="#FFFFFF" d="M86.277,0c-5.366,0-9.731,4.365-9.731,9.731s4.365,9.731,9.731,9.731v-5.5
		c-2.333,0-4.231-1.898-4.231-4.231S83.945,5.5,86.277,5.5s4.231,1.898,4.231,4.231h5.5C96.008,4.365,91.643,0,86.277,0z"/>
	<path fill="#FFFFFF" d="M148.035,8.671c0,2.714-2.208,4.921-4.921,4.921v2c3.816,0,6.921-3.105,6.921-6.921
		c0-3.816-3.105-6.921-6.921-6.921h-11.848v2h11.848C145.827,3.75,148.035,5.958,148.035,8.671z"/>
	<path fill="#FFFFFF" d="M179.626,24.812c-1.749,0-3.171-1.423-3.171-3.171V2.75h-5.5v18.891c0,4.781,3.89,8.671,8.671,8.671
		c4.781,0,8.671-3.89,8.671-8.671h-5.5C182.797,23.389,181.374,24.812,179.626,24.812z"/>
	<path fill="#FFFFFF" d="M86.277,10.449v2c3.891,0,7.057,3.166,7.057,7.057s-3.166,7.056-7.057,7.056s-7.056-3.166-7.056-7.056h-2
		c0,4.994,4.063,9.056,9.056,9.056c4.994,0,9.057-4.063,9.057-9.056S91.271,10.449,86.277,10.449z"/>
	<path fill="#FFFFFF" d="M36.039,24.491c-1.036,0.429-2.177,0.429-3.213,0c-1.036-0.429-1.843-1.236-2.272-2.272
		c-0.429-1.036-0.429-2.177,0-3.213c0.299-0.721,0.789-1.321,1.404-1.77c0.797,0.263,1.633,0.412,2.485,0.412
		c1.012,0,2.04-0.194,3.031-0.605l-0.765-1.848c-0.013,0.005-0.025,0.008-0.038,0.014l1.473-3.556c-2.393-0.991-5.029-0.991-7.422,0
		c-0.547,0.226-1.062,0.504-1.549,0.818c-0.084-0.16-0.164-0.324-0.235-0.494c-0.608-1.468-0.608-3.085,0-4.552
		c0.608-1.468,1.751-2.611,3.219-3.219c1.468-0.608,3.085-0.608,4.552,0c1.468,0.608,2.611,1.751,3.219,3.219l1.848-0.765
		c-0.812-1.961-2.34-3.489-4.302-4.301c-1.961-0.812-4.122-0.812-6.083,0c-1.961,0.812-3.489,2.34-4.302,4.301
		c-0.812,1.961-0.812,4.122,0,6.083c0.144,0.348,0.316,0.675,0.502,0.991c-0.898,0.893-1.62,1.963-2.119,3.168
		c-0.991,2.393-0.991,5.029,0,7.423c0.991,2.393,2.855,4.257,5.248,5.249c1.197,0.496,2.454,0.743,3.711,0.743
		c1.257,0,2.515-0.248,3.711-0.743c2.393-0.991,4.257-2.855,5.249-5.249l-5.081-2.105C37.882,23.255,37.075,24.062,36.039,24.491z"
		/>
	<polygon fill="#FFFFFF" points="52.473,2.75 50.473,2.75 50.473,4.365 48.821,2.712 44.932,6.602 50.473,12.143 50.473,27.562 
		52.473,27.562 52.473,14.143 67.798,29.468 71.688,25.579 52.473,6.365 	"/>
	<rect x="225.48" y="2.75" fill="#FFFFFF" width="2" height="24.812"/>
	<rect x="189.778" y="2.75" fill="#FFFFFF" width="2" height="24.812"/>
	<rect x="67.064" y="2.75" fill="#FFFFFF" width="2" height="16.626"/>
	<polygon fill="#FFFFFF" points="213.992,17.578 202.72,6.306 202.72,2.75 200.72,2.75 200.72,4.306 199.147,2.733 195.258,6.622 
		200.72,12.084 200.72,27.562 202.72,27.562 202.72,14.084 213.992,25.356 223.867,15.482 219.979,11.593 	"/>
	<polygon fill="#FFFFFF" points="127.419,9.147 132.966,14.693 132.966,27.562 134.966,27.562 134.966,16.693 147.685,29.412 
		151.574,25.522 131.309,5.258 	"/>
	<path fill="#FFFFFF" d="M115.121,24.812c-2.082,0-4.039-0.811-5.511-2.283c-3.039-3.039-3.039-7.984,0-11.023l-3.889-3.889
		c-2.511,2.511-3.894,5.849-3.894,9.4c0,3.551,1.383,6.889,3.894,9.4c2.511,2.511,5.849,3.894,9.4,3.894s6.889-1.383,9.4-3.894
		l-3.889-3.889C119.16,24.001,117.202,24.812,115.121,24.812z"/>
	<path fill="#FFFFFF" d="M111.362,3.75c2.549,0,4.946,0.993,6.749,2.795c3.721,3.721,3.721,9.776,0,13.497l1.414,1.414
		c4.501-4.501,4.501-11.825,0-16.326c-2.18-2.18-5.079-3.381-8.163-3.381s-5.983,1.201-8.163,3.381l1.414,1.414
		C106.416,4.743,108.813,3.75,111.362,3.75z"/>
	<polygon fill="#FFFFFF" points="159.42,2.75 157.67,2.75 157.67,15.156 159.42,15.156 159.42,27.562 161.42,27.562 161.42,15.156 
		163.17,15.156 163.17,2.75 161.42,2.75 	"/>
	<path fill="#FFFFFF" d="M255.345,0.156c-2.616,0-5.075,1.019-6.925,2.868s-2.868,4.309-2.868,6.925
		c0,2.616,1.019,5.075,2.868,6.925l3.889-3.889c-0.811-0.811-1.257-1.889-1.257-3.036c0-1.147,0.447-2.225,1.257-3.036
		c0.811-0.811,1.889-1.258,3.036-1.258c1.147,0,2.225,0.447,3.036,1.258c0.811,0.811,1.257,1.889,1.257,3.036
		c0,1.147-0.447,2.225-1.257,3.035l-6.956,6.952l3.888,3.89l6.957-6.953c1.85-1.85,2.868-4.309,2.868-6.925
		c0-2.616-1.019-5.075-2.868-6.925C260.42,1.175,257.961,0.156,255.345,0.156z"/>
	<path fill="#FFFFFF" d="M332.102,12.405l-3.889,3.889c1.946,1.945,1.946,5.111,0,7.057c-1.946,1.946-5.111,1.946-7.057,0
		c-1.946-1.946-1.946-5.111,0-7.057l-1.237-1.238l11.653-11.649l-1.414-1.415l-11.653,11.649l0.871,0.871l-2.108-2.108
		c-1.981,1.981-3.072,4.616-3.072,7.418c0,2.802,1.091,5.436,3.072,7.417c2.045,2.045,4.731,3.068,7.417,3.068
		c2.686,0,5.373-1.023,7.418-3.068C336.192,23.149,336.192,16.494,332.102,12.405z"/>
	<rect x="247.732" y="25.562" fill="#FFFFFF" width="15.227" height="2"/>
	<path fill="#FFFFFF" d="M284.249,11.384c1.472,1.472,2.283,3.429,2.283,5.511c0,2.082-0.811,4.039-2.283,5.511
		c-3.039,3.039-7.984,3.039-11.023,0l-3.889,3.889c2.511,2.511,5.849,3.894,9.4,3.894s6.889-1.383,9.4-3.894
		c2.511-2.511,3.894-5.849,3.894-9.4c0-3.551-1.383-6.889-3.894-9.4L284.249,11.384z"/>
	<path fill="#FFFFFF" d="M275.678,19.92c-3.721-3.721-3.721-9.776,0-13.497c1.803-1.803,4.199-2.795,6.749-2.795
		c2.549,0,4.946,0.993,6.749,2.795l1.414-1.414c-2.18-2.18-5.079-3.381-8.163-3.381c-3.084,0-5.983,1.201-8.163,3.381
		c-4.501,4.501-4.501,11.825,0,16.326L275.678,19.92z"/>
	<polygon fill="#FFFFFF" points="306.846,4.365 306.846,2.75 304.846,2.75 304.846,6.365 297.119,14.092 301.008,17.982 
		304.846,14.143 304.846,27.562 306.846,27.562 306.846,12.143 312.388,6.602 308.499,2.712 	"/>
</g>
</svg>
