<?xml version="1.0" encoding="utf-8"?>
<!-- Generator: Adobe Illustrator 18.0.0, SVG Export Plug-In . SVG Version: 6.00 Build 0)  -->
<!DOCTYPE svg PUBLIC "-//W3C//DTD SVG 1.1//EN" "http://www.w3.org/Graphics/SVG/1.1/DTD/svg11.dtd">
<svg version="1.1" id="Layer_1" xmlns="http://www.w3.org/2000/svg" xmlns:xlink="http://www.w3.org/1999/xlink" x="0px" y="0px"
	 viewBox="0 0 227.48 30.315" enable-background="new 0 0 227.48 30.315" xml:space="preserve">
<g>
	<path fill="#0097AD" d="M9.731,0C4.365,0,0,4.365,0,9.73c0,5.366,4.365,9.73,9.731,9.73v-5.5c-2.333,0-4.231-1.898-4.231-4.231
		c0-2.332,1.898-4.23,4.231-4.23c2.332,0,4.23,1.898,4.23,4.23h5.5C19.461,4.365,15.096,0,9.731,0z"/>
	<path fill="#0097AD" d="M9.731,10.449v2c3.891,0,7.056,3.166,7.056,7.057c0,3.891-3.166,7.057-7.056,7.057
		c-3.891,0-7.057-3.166-7.057-7.057h-2c0,4.994,4.062,9.057,9.057,9.057c4.994,0,9.056-4.063,9.056-9.057
		C18.787,14.512,14.725,10.449,9.731,10.449z"/>
	<path fill="#0097AD" d="M86.278,0c-5.366,0-9.731,4.365-9.731,9.73c0,5.366,4.365,9.73,9.731,9.73v-5.5
		c-2.333,0-4.231-1.898-4.231-4.231c0-2.332,1.898-4.23,4.231-4.23c2.332,0,4.23,1.898,4.23,4.23h5.5
		C96.008,4.365,91.643,0,86.278,0z"/>
	<path fill="#0097AD" d="M148.035,8.671c0,2.714-2.207,4.921-4.921,4.921v2c3.816,0,6.921-3.105,6.921-6.921
		s-3.104-6.921-6.921-6.921h-11.848v2h11.848C145.827,3.75,148.035,5.957,148.035,8.671z"/>
	<path fill="#0097AD" d="M179.625,24.812c-1.748,0-3.171-1.423-3.171-3.171V2.75h-5.5v18.891c0,4.781,3.89,8.671,8.671,8.671
		c4.781,0,8.672-3.89,8.672-8.671h-5.5C182.797,23.389,181.374,24.812,179.625,24.812z"/>
	<path fill="#0097AD" d="M86.278,10.449v2c3.891,0,7.056,3.166,7.056,7.057c0,3.891-3.166,7.057-7.056,7.057
		c-3.891,0-7.057-3.166-7.057-7.057h-2c0,4.994,4.063,9.057,9.057,9.057c4.994,0,9.056-4.063,9.056-9.057
		C95.334,14.512,91.271,10.449,86.278,10.449z"/>
	<path fill="#0097AD" d="M36.039,24.49c-1.036,0.429-2.177,0.429-3.213,0c-1.036-0.429-1.843-1.236-2.272-2.271
		c-0.429-1.036-0.429-2.177,0-3.213c0.298-0.721,0.789-1.32,1.403-1.77c0.797,0.263,1.633,0.412,2.485,0.412
		c1.012,0,2.04-0.195,3.031-0.605l-0.765-1.848c-0.013,0.005-0.025,0.008-0.038,0.014l1.473-3.556c-2.393-0.991-5.029-0.991-7.422,0
		c-0.547,0.227-1.062,0.504-1.549,0.817c-0.084-0.16-0.164-0.324-0.235-0.494c-0.608-1.468-0.608-3.085,0-4.553
		c0.608-1.468,1.751-2.611,3.219-3.219c1.468-0.608,3.084-0.608,4.552,0c1.468,0.608,2.611,1.751,3.219,3.219l1.848-0.765
		c-0.812-1.961-2.34-3.489-4.302-4.301c-1.961-0.812-4.122-0.812-6.083,0c-1.961,0.812-3.489,2.34-4.301,4.301
		c-0.812,1.961-0.812,4.122,0,6.083c0.144,0.348,0.316,0.675,0.502,0.991c-0.898,0.893-1.62,1.963-2.119,3.168
		c-0.991,2.393-0.991,5.029,0,7.422s2.855,4.257,5.249,5.248c1.197,0.496,2.454,0.744,3.711,0.744c1.257,0,2.515-0.248,3.711-0.744
		c2.393-0.991,4.257-2.855,5.249-5.248l-5.082-2.104C37.882,23.254,37.075,24.062,36.039,24.49z"/>
	<polygon fill="#0097AD" points="52.474,2.75 50.474,2.75 50.474,4.365 48.821,2.712 44.932,6.601 50.474,12.143 50.474,27.562 
		52.474,27.562 52.474,14.143 67.798,29.468 71.688,25.579 52.474,6.365 	"/>
	<rect x="225.48" y="2.75" fill="#0097AD" width="2" height="24.812"/>
	<rect x="189.779" y="2.75" fill="#0097AD" width="2" height="24.812"/>
	<rect x="67.064" y="2.75" fill="#0097AD" width="2" height="16.626"/>
	<polygon fill="#0097AD" points="213.993,17.578 202.72,6.305 202.72,2.75 200.72,2.75 200.72,4.305 199.147,2.732 195.258,6.622 
		200.72,12.083 200.72,27.562 202.72,27.562 202.72,14.083 213.992,25.355 223.868,15.482 219.979,11.592 	"/>
	<polygon fill="#0097AD" points="127.419,9.146 132.966,14.693 132.966,27.562 134.966,27.562 134.966,16.693 147.685,29.412 
		151.574,25.522 131.309,5.257 	"/>
	<path fill="#0097AD" d="M115.121,24.812c-2.082,0-4.039-0.811-5.511-2.283c-3.039-3.039-3.039-7.983,0-11.022l-3.889-3.889
		c-2.511,2.511-3.894,5.85-3.894,9.4c0,3.551,1.383,6.89,3.894,9.4c2.511,2.511,5.85,3.894,9.4,3.894c3.551,0,6.89-1.383,9.4-3.894
		l-3.889-3.889C119.16,24.001,117.203,24.812,115.121,24.812z"/>
	<path fill="#0097AD" d="M111.362,3.75c2.549,0,4.946,0.993,6.749,2.795c3.721,3.721,3.721,9.776,0,13.497l1.414,1.415
		c4.501-4.501,4.501-11.825,0-16.326c-2.18-2.18-5.079-3.381-8.163-3.381c-3.083,0-5.982,1.201-8.163,3.381l1.415,1.414
		C106.416,4.743,108.813,3.75,111.362,3.75z"/>
	<polygon fill="#0097AD" points="159.42,2.75 157.67,2.75 157.67,15.156 159.42,15.156 159.42,27.562 161.42,27.562 161.42,15.156 
		163.17,15.156 163.17,2.75 161.42,2.75 	"/>
</g>
</svg>
